<svg width="32" height="32" viewBox="0 0 32 32" fill="none" xmlns="http://www.w3.org/2000/svg">
<circle cx="16" cy="16" r="16" fill="#00C284"/>
<path d="M20.9228 21.5385V20.3077C20.9228 19.6549 20.6635 19.0288 20.2018 18.5671C19.7402 18.1055 19.1141 17.8462 18.4613 17.8462H13.5382C12.8854 17.8462 12.2593 18.1055 11.7976 18.5671C11.336 19.0288 11.0767 19.6549 11.0767 20.3077V21.5385" stroke="#F8F8F8" stroke-width="1.5" stroke-linecap="round" stroke-linejoin="round"/>
<path d="M15.9996 15.3846C17.3591 15.3846 18.4612 14.2826 18.4612 12.9231C18.4612 11.5636 17.3591 10.4615 15.9996 10.4615C14.6402 10.4615 13.5381 11.5636 13.5381 12.9231C13.5381 14.2826 14.6402 15.3846 15.9996 15.3846Z" stroke="#F8F8F8" stroke-width="1.5" stroke-linecap="round" stroke-linejoin="round"/>
</svg>
