<svg width="48" height="48" viewBox="0 0 48 48" fill="none" xmlns="http://www.w3.org/2000/svg">
<path d="M6 12H10H42" stroke="#E73F5D" stroke-width="4" stroke-linecap="round" stroke-linejoin="round"/>
<path d="M15.9995 12.0002V8.00018C15.9995 6.93932 16.4209 5.9219 17.1711 5.17176C17.9212 4.42161 18.9386 4.00018 19.9995 4.00018H27.9995C29.0604 4.00018 30.0778 4.42161 30.8279 5.17176C31.5781 5.9219 31.9995 6.93932 31.9995 8.00018V12.0002M37.9995 12.0002V40.0002C37.9995 41.061 37.5781 42.0785 36.8279 42.8286C36.0778 43.5788 35.0604 44.0002 33.9995 44.0002H13.9995C12.9386 44.0002 11.9212 43.5788 11.1711 42.8286C10.4209 42.0785 9.99951 41.061 9.99951 40.0002V12.0002H37.9995Z" stroke="#E73F5D" stroke-width="4" stroke-linecap="round" stroke-linejoin="round"/>
</svg>
