<svg width="25" height="24" viewBox="0 0 25 24" fill="none" xmlns="http://www.w3.org/2000/svg">
<path d="M19.5 5V19H5.5V5H19.5ZM19.5 3H5.5C4.4 3 3.5 3.9 3.5 5V19C3.5 20.1 4.4 21 5.5 21H19.5C20.6 21 21.5 20.1 21.5 19V5C21.5 3.9 20.6 3 19.5 3ZM8 6C7.2 6 6.5 6.7 6.5 7.5C6.5 8.3 7.2 9 8 9C8.8 9 9.5 8.3 9.5 7.5C9.5 6.7 8.8 6 8 6ZM17 15C16.2 15 15.5 15.7 15.5 16.5C15.5 17.3 16.2 18 17 18C17.8 18 18.5 17.3 18.5 16.5C18.5 15.7 17.8 15 17 15ZM17 10.5C16.2 10.5 15.5 11.2 15.5 12C15.5 12.8 16.2 13.5 17 13.5C17.8 13.5 18.5 12.8 18.5 12C18.5 11.2 17.8 10.5 17 10.5ZM17 6C16.2 6 15.5 6.7 15.5 7.5C15.5 8.3 16.2 9 17 9C17.8 9 18.5 8.3 18.5 7.5C18.5 6.7 17.8 6 17 6ZM8 10.5C7.2 10.5 6.5 11.2 6.5 12C6.5 12.8 7.2 13.5 8 13.5C8.8 13.5 9.5 12.8 9.5 12C9.5 11.2 8.8 10.5 8 10.5ZM8 15C7.2 15 6.5 15.7 6.5 16.5C6.5 17.3 7.2 18 8 18C8.8 18 9.5 17.3 9.5 16.5C9.5 15.7 8.8 15 8 15Z" fill="#F8F8F8"/>
</svg>
